<svg xmlns="http://www.w3.org/2000/svg" viewBox="0 0 586.2 363.33"><defs><style>.cls-1{fill:#5bc0be;}.cls-2,.cls-4{fill:#0b132b;}.cls-3{fill:#fff;}.cls-4{stroke:#000;stroke-linecap:round;stroke-linejoin:round;stroke-width:0.07px;}</style></defs><g id="Layer_2" data-name="Layer 2"><g id="Layer_1-2" data-name="Layer 1"><path class="cls-1" d="M494.47,310.64s-15.75,12.05-27.56,18c0,0-32.32,15.82-49.6,17.8,0,0-25.64,5.3-35.19,5.11,0,0-11.25,1.41-18.93,1.05,0,0-27.78-.08-30.84-1.07l-3.29-1.08c-7.94-16.93-16.64-34.29-26.16-51.87q-12.6-23.3-25.17-43.75a311.27,311.27,0,0,0-30.21-42.4c-11.74-13.8-23.05-27.09-40.73-38.14a122.13,122.13,0,0,0-52.39-17.87s-38.31,3.52-44.86,6.07L93.16,168s25.76-24,38.39-30,32.85-14.67,32.85-14.67,43.65-12.71,57.14-11a108.07,108.07,0,0,1,71.1,24.07q7.37,8.2,14.72,16.42,11,1.23,22.3,3c10.38,1.6,20.4,3.46,30,5.5,0,0,62,23.36,81.38,42.69,0,0,25.87,24.23,35.95,43.05.62,1.15,1.05,2.07,1.21,2.39C488.17,269.53,492.64,291.19,494.47,310.64Z"/><path class="cls-1" d="M204.9,231c-.7-.23-33.48-12.09-44.26-10.92L117.07,227S88.76,236.5,81.5,237.26c0,0-27.4,5.12-37.51,1,0,0-43.23-14.88-44-24.5l1.61-4.94s29.14,10.28,54.76,1.85l59.69-16.46s30-7.41,43.17-4.08c0,0,22.07,7.38,31,16.65.32.33.62.66.91,1,8.26,9.73,15.12,19,15.12,19Z"/><path class="cls-1" d="M259.88,288.8s-24-9.38-32.63-6.74c0,0-37.6,5.31-45,9.55l-30.41,11.95c-4.35.81-8.91,1.49-13.67,2a157.53,157.53,0,0,1-17.63.84A79.86,79.86,0,0,1,109.73,304a79,79,0,0,1-15.44-6.35L80.64,289.3l1.84-5.65a45.18,45.18,0,0,0,30.61,2.57l41.54-11.8,39.54-15.25s23-4.23,34,.15c0,0,14.45,5.89,22.59,14.4a27,27,0,0,0,5.84,6.2c2,1.54,4,2.46,4.14,5.06A8.51,8.51,0,0,1,259.88,288.8Z"/><path class="cls-1" d="M299.74,348.27s-28.19-9.19-50.65-1.68L209.9,360s-27.63,5.82-38.91,2.15c0,0-23-7.51-25.63-12.27l1.5-4.59s31.92,6.51,55.64-7.23c0,0,45-20.07,59-16.69a59.18,59.18,0,0,1,19,6.43,63.78,63.78,0,0,1,12.27,8.7l8.29,7.92Z"/><path class="cls-2" d="M283.5,3.71a10.73,10.73,0,0,1-.61,3s-4.16,14.34-4.38,16.07-3.11,11-.23,20.49c0,0,4.11,12.49,12.57,17.23,0,0,16.86,10.35,28.48,11.1,3.83.68,7.83,1.31,12,1.85q6.56.86,12.63,1.35a4.19,4.19,0,0,0,2-.46,6.19,6.19,0,0,0,1.66-1.4,14,14,0,0,0,1.11-1.27c.72-.95,6.53-7.18,20.41-21.79a1.9,1.9,0,0,1,1-.41,2,2,0,0,1,1.32.39l4.84,4.31,3.87,3.87q7.21,7.28,14.41,14.57L427,107.36l23.61,28.29,27.77,37.74c1,1.36,2,2.73,3.11,4.11a150.53,150.53,0,0,0,9.86,11.41l5.33,6.28s-17.27-1.59-21.75-1.41c-3.66-.06-7.58,0-11.74.27-4.4.27-8.52.71-12.32,1.25A61.8,61.8,0,0,0,428.62,202a41.88,41.88,0,0,0-4.43,3.21c-2.51,2.08-5.51,4.56-7.66,8.69a22.45,22.45,0,0,0-2,5.86l-.55,4.5-27.19-16.74-73.57-49.65-21.4-14.81s4.24-12,3.16-20.23a73.1,73.1,0,0,0-6-24,125.64,125.64,0,0,0-21.64-34.6s-23.85-23.69-29.2-26.67L264.87,8.2s6.88-5.59,8-6.25-.15,0-.15,0a10.13,10.13,0,0,1,1.57-.89,11.92,11.92,0,0,1,3.85-1,13.17,13.17,0,0,1,2.31,0,4.39,4.39,0,0,1,1.06.24,4.58,4.58,0,0,1,1.89,1.26A10.36,10.36,0,0,1,283.5,3.71Z"/><circle class="cls-3" cx="390.61" cy="105.99" r="13.17"/><circle class="cls-2" cx="390.61" cy="105.99" r="3.07"/><circle class="cls-3" cx="432.06" cy="152.7" r="13.17"/><circle class="cls-2" cx="432.06" cy="152.7" r="3.07"/><rect class="cls-3" x="308.67" y="117.33" width="49.99" height="9.62" rx="4.81" transform="translate(-21.54 113) rotate(-18.63)"/><rect class="cls-3" x="348.07" y="147.82" width="49.99" height="9.62" rx="4.81" transform="matrix(0.95, -0.32, 0.32, 0.95, -29.21, 127.19)"/><path class="cls-4" d="M225.69,51.79c-2.36,1.88-.11,0-.11,0s-5.68,4.63-6.28,5.27c0,0-2.19,2.12-3.23,3.26l-5.81,7.08c-.53.74-1.07,1.53-1.61,2.37-.76,1.18-1.43,2.33-2,3.43a31,31,0,0,0-2.75,8.05l-.81,3.82,7.23,4.26,10.06,6.09,9.93,6.17,15.48,10.26L259.59,121l13.13,9,10.79,7.4a44.2,44.2,0,0,0,1.42-6.78,49.92,49.92,0,0,0,.14-8.71,48.9,48.9,0,0,0-.75-5.8,50.15,50.15,0,0,0-1.89-7.06,44.08,44.08,0,0,0-4.64-12.41,46.32,46.32,0,0,0-2.51-5.38,44.81,44.81,0,0,0-3.92-6,62.93,62.93,0,0,0-3.84-5.72,65.81,65.81,0,0,0-5.16-6L251.74,62l-9.94-9-9.88-8.29S228.05,49.92,225.69,51.79Z"/><path class="cls-2" d="M510,207c-1.12-.24-2.26-.47-3.44-.69-2.71-.51-5.31-.89-7.81-1.18L481,203.59s-4.91-.4-7.9-.28l-15.17.53c-1.83.15-3.76.37-5.76.67a89.75,89.75,0,0,0-9.08,1.83,52.43,52.43,0,0,0-5.51,2,53.29,53.29,0,0,0-6.27,3.24,19.43,19.43,0,0,0-3.19,2.68,18.83,18.83,0,0,0-3.06,4.23c-.31.86-.62,1.78-.91,2.76q-.51,1.76-.84,3.33a21.78,21.78,0,0,0,.07,3,24,24,0,0,0,.41,2.65l15.31,8.41,18.27,9.74,20.47,9.91,19.78,8.23,18.34,6s17.11,4.66,22.12,5.26c0,0,11.95,1.76,16.07,1.9l15.4-.36,11.86-1.93s5-9.42,4.78-12.83c0,0,.41-7.83-2.39-11.24,0,0-2.57-3.68-3.72-4.28l-17.24-7.74-19.75-10.65-17.22-11.16-10.59-8.27Z"/><path class="cls-2" d="M193.27,90.85c-.39,0-3.13,4.84-4.6,6.16l-6,6.36L177,108s-5,3.23-6.33,3.75c0,0-5,2.27-6.41,2.15,0,0-1.53,1.35-1.63,2.47a11,11,0,0,0-.11,2.75,30.59,30.59,0,0,0,2.14,5,72.08,72.08,0,0,0,4.69,6s3.3,3.76,4.12,4.52l-.82-.76,10.11,8.78,16,12,25.77,16.62,27.14,16,93.12,48.57L411.27,268,447.65,285s12.73,5.69,15.75,6.64c0,0,18.8,6.08,24.06,6.58,0,0,20.38,3.58,26.36,3.25,0,0,20.87.08,26.12-.75,0,0,16.74-2.13,20.43-3.28l15.19-4.08,6.31-2.23s1.16-1.88,1.06-2.39a13.12,13.12,0,0,1-.11-1.66s-6.72,1.42-9.66,1.62c0,0-16,1.29-20.66.45,0,0-14.93-1.23-18.67-2.39,0,0-28.59-6.72-32-8.29l-21.56-8.21-17.25-8-18-9.05-30-16.77-36-22.21-76.53-51.59-28.23-20.05-60.85-40.32-14.58-8.25Z"/></g></g></svg>